<?xml version="1.0" standalone="no"?>
<!DOCTYPE svg PUBLIC "-//W3C//DTD SVG 20010904//EN"
 "http://www.w3.org/TR/2001/REC-SVG-20010904/DTD/svg10.dtd">
<svg version="1.0" xmlns="http://www.w3.org/2000/svg"
 width="751.000000pt" height="751.000000pt" viewBox="0 0 751.000000 751.000000"
 preserveAspectRatio="xMidYMid meet">
<metadata>
Created by potrace 1.11, written by Peter Selinger 2001-2013
</metadata>
<g transform="translate(0.000000,751.000000) scale(0.100000,-0.100000)"
fill="#000000" stroke="none">
<path d="M5230 6017 c-3 -3 -39 -7 -80 -10 -137 -12 -326 -52 -470 -99 -36
-12 -67 -23 -70 -23 -3 -1 -18 -7 -33 -13 -16 -7 -30 -12 -32 -12 -2 0 -46
-20 -97 -44 -550 -263 -930 -761 -1053 -1381 -35 -178 -40 -237 -40 -485 0
-188 7 -309 20 -360 2 -8 7 -35 10 -59 13 -89 91 -368 114 -406 3 -5 6 -12 7
-15 2 -15 43 -105 82 -179 91 -176 214 -343 354 -476 109 -105 144 -133 258
-209 200 -134 381 -211 661 -284 l37 -10 0 612 -1 612 -48 52 c-127 137 -211
321 -243 537 -16 102 -14 348 2 410 6 22 13 51 15 65 9 46 39 145 49 158 6 6
8 12 4 12 -10 0 73 152 113 205 106 140 269 250 416 280 22 5 47 10 55 13 38
11 270 10 330 -2 370 -75 612 -369 665 -806 7 -60 7 -230 1 -270 -3 -14 -7
-44 -10 -67 -24 -192 -117 -395 -241 -531 l-48 -53 -1 -610 c-1 -335 3 -609 8
-609 23 0 233 60 281 81 11 4 49 20 85 35 298 121 593 354 792 625 47 63 134
213 175 300 40 84 110 262 116 296 2 10 9 38 16 63 7 25 15 54 17 65 12 55 25
124 30 155 3 19 7 46 9 60 18 108 24 403 11 540 -12 130 -60 381 -83 440 -4 8
-7 17 -8 20 -5 23 -32 101 -40 120 -2 3 -6 16 -11 30 -15 48 -126 264 -171
334 -245 379 -590 644 -1028 787 -49 16 -99 31 -110 34 -11 2 -63 13 -115 24
-52 11 -115 23 -140 26 -25 4 -56 9 -70 11 -32 7 -484 16 -490 11z"/>
<path d="M3 3835 l0 -2075 593 0 593 0 -1 815 c0 449 2 818 5 821 7 7 1437 7
1444 0 4 -3 6 -373 6 -821 l0 -815 596 0 596 0 0 305 0 304 -61 63 c-74 77
-234 283 -234 302 0 2 -17 33 -39 67 -88 146 -201 436 -227 582 -2 17 -7 33
-9 37 -2 4 -9 38 -15 76 -30 183 -35 238 -35 454 0 243 6 318 41 509 67 361
265 761 500 1011 86 92 79 69 79 261 l0 174 -595 0 -595 0 -2 -700 c-1 -385
-2 -712 -2 -726 l-1 -26 -725 0 -725 0 0 46 c-1 25 -1 353 -1 729 l0 682 -593
0 -593 0 0 -2075z"/>
<path d="M5035 2533 l0 -1028 390 0 390 0 1 1028 1 1027 -391 0 -391 0 0
-1027z"/>
</g>
</svg>
